<svg id="Layer_1" data-name="Layer 1" xmlns="http://www.w3.org/2000/svg" viewBox="0 0 354.91 356.31"><defs><style>.cls-1,.cls-3{fill:#d4af37;}.cls-2{fill:#191919;}.cls-3{stroke:#000;stroke-miterlimit:10;}</style></defs><title>watchiconTilted</title><path class="cls-1" d="M69,122.92a120.87,120.87,0,1,0,170.94,0A120.86,120.86,0,0,0,69,122.92ZM229.29,283.2a105.8,105.8,0,1,1,0-149.62A105.79,105.79,0,0,1,229.29,283.2Z" transform="translate(24.02 -31.42)"/><circle class="cls-2" cx="178.5" cy="176.97" r="101.63"/><rect class="cls-1" x="176.26" y="80.56" width="25.57" height="9.95" transform="translate(52.6 -77.43) rotate(15)"/><path class="cls-1" d="M180.16,66.6h24.28a4.2,4.2,0,0,1,4.2,4.2v8.69a0,0,0,0,1,0,0H175.89a0,0,0,0,1,0,0V70.87A4.26,4.26,0,0,1,180.16,66.6Z" transform="translate(49.48 -78.69) rotate(15)"/><rect class="cls-1" x="265.73" y="173.76" width="25.57" height="9.95" transform="translate(201.97 462.6) rotate(-105)"/><path class="cls-1" d="M274.63,169.08h32.74a0,0,0,0,1,0,0v8.69a4.2,4.2,0,0,1-4.2,4.2H278.89a4.26,4.26,0,0,1-4.26-4.26v-8.62A0,0,0,0,1,274.63,169.08Z" transform="translate(220.8 470.61) rotate(-105)"/><rect class="cls-1" x="232.38" y="114.56" width="25.57" height="9.95" transform="translate(180.35 -169.77) rotate(45)"/><path class="cls-1" d="M242.09,104.4h24.28a4.2,4.2,0,0,1,4.2,4.2v8.69a0,0,0,0,1,0,0H237.83a0,0,0,0,1,0,0v-8.62A4.26,4.26,0,0,1,242.09,104.4Z" transform="translate(176.85 -178.7) rotate(45)"/><path class="cls-1" d="M152.53,84l-26.8,3.12-23.9-22.85a6.12,6.12,0,0,1,.17-9L104.49,53a6.09,6.09,0,0,1,7.78-.26Z" transform="translate(24.02 -31.42)"/><path class="cls-1" d="M30.13,203.85l3.12-26.8-22.84-23.9a6.12,6.12,0,0,0-9,.17l-2.21,2.49A6.09,6.09,0,0,0-1,163.59Z" transform="translate(24.02 -31.42)"/><path class="cls-1" d="M110.76,76.15,72.93,117.37c-2.62,2.86-5.37,5.6-8.22,8.22L23.49,163.43l-10-10,87.28-87.27Z" transform="translate(24.02 -31.42)"/><path class="cls-1" d="M48.43,33.37-22,102.68a6.83,6.83,0,0,0-.39,9.33l34.48,40L99.39,64.78l-42.07-32A6.8,6.8,0,0,0,48.43,33.37Z" transform="translate(24.02 -31.42)"/><rect class="cls-3" x="88.67" y="134.72" width="8.82" height="22.04" transform="translate(-51.77 77.08) rotate(-45)"/><rect class="cls-3" x="212.1" y="258.15" width="8.82" height="22.04" transform="translate(-102.9 200.52) rotate(-45)"/><rect class="cls-3" x="89.29" y="260.65" width="8.82" height="22.04" transform="translate(-8.12 498.6) rotate(-135)"/><rect class="cls-3" x="211.48" y="137.21" width="8.82" height="22.04" transform="translate(287.75 374.28) rotate(-135)"/><rect class="cls-3" x="64.98" y="177.11" width="8.82" height="22.04" transform="translate(-105.04 185.46) rotate(-78)"/><rect class="cls-3" x="132.3" y="112.27" width="8.82" height="22.04" transform="translate(320.1 184.05) rotate(168)"/><rect class="cls-3" x="68.09" y="227.61" width="8.82" height="22.04" transform="translate(-100.27 360.41) rotate(-111)"/><rect class="cls-3" x="179.68" y="116.01" width="8.82" height="22.04" transform="translate(334.46 280.19) rotate(-159)"/><rect class="cls-3" x="234.54" y="214.51" width="8.82" height="22.04" transform="translate(-7.31 380.96) rotate(-78)"/><rect class="cls-3" x="230.8" y="167.13" width="8.82" height="22.04" transform="translate(177.21 430.17) rotate(-111)"/><rect class="cls-3" x="166.59" y="282.47" width="8.82" height="22.04" transform="translate(423.31 513.59) rotate(168)"/><rect class="cls-3" x="119.21" y="278.73" width="8.82" height="22.04" transform="translate(159.22 573.13) rotate(-159)"/><circle class="cls-3" cx="176.63" cy="173.85" r="11.46"/><polygon class="cls-3" points="92.73 133.33 91.98 134.93 158.57 175.71 165.87 168.41 166.77 158.13 92.73 133.33"/><polygon class="cls-3" points="243.44 161.68 243.11 159.82 188.79 159.82 188.2 170.46 192.39 180.25 243.44 161.68"/><path class="cls-1" d="M278.35,211.17,275.24,238l22.84,23.9a6.12,6.12,0,0,0,9-.17l2.21-2.49a6.09,6.09,0,0,0,.26-7.78Z" transform="translate(24.02 -31.42)"/><path class="cls-1" d="M158.45,333.57l26.8-3.12,23.9,22.84a6.12,6.12,0,0,1-.17,9l-2.49,2.21a6.09,6.09,0,0,1-7.78.26Z" transform="translate(24.02 -31.42)"/><path class="cls-1" d="M286.15,252.94l-41.22,37.83c-2.86,2.62-5.6,5.37-8.22,8.22l-37.84,41.22,10,10,87.27-87.28Z" transform="translate(24.02 -31.42)"/><path class="cls-1" d="M328.93,315.27l-69.31,70.42a6.84,6.84,0,0,1-9.33.38l-40-34.48,87.27-87.28,32,42.07A6.8,6.8,0,0,1,328.93,315.27Z" transform="translate(24.02 -31.42)"/></svg>