<?xml version="1.0" standalone="no"?>
<!DOCTYPE svg PUBLIC "-//W3C//DTD SVG 20010904//EN"
 "http://www.w3.org/TR/2001/REC-SVG-20010904/DTD/svg10.dtd">
<svg version="1.0" xmlns="http://www.w3.org/2000/svg"
 width="370.000000pt" height="100.000000pt" viewBox="0 0 370.000000 100.000000"
 preserveAspectRatio="xMidYMid meet">
<metadata>
Created by potrace 1.15, written by Peter Selinger 2001-2017
</metadata>
<g transform="translate(0.000000,100.000000) scale(0.100000,-0.100000)"
fill="#ffffff" stroke="none">
<path d="M1652 755 c-74 -21 -103 -38 -146 -85 -49 -55 -69 -102 -69 -170 -1
-90 18 -139 76 -195 72 -70 135 -89 266 -83 142 8 201 39 201 107 0 33 -11 29
-59 -19 -67 -66 -141 -85 -236 -59 -81 22 -165 142 -165 235 0 60 21 132 50
172 79 110 275 111 348 2 13 -19 27 -36 31 -38 11 -4 22 81 12 91 -4 4 -34 16
-66 28 -78 27 -176 33 -243 14z"/>
<path d="M3324 760 c-95 -20 -168 -71 -207 -144 -31 -59 -31 -193 0 -252 46
-86 132 -135 249 -142 109 -6 180 15 241 71 84 77 110 172 79 281 -40 135
-204 220 -362 186z m162 -39 c98 -45 151 -202 112 -332 -28 -94 -122 -157
-218 -146 -128 15 -205 115 -202 263 1 102 42 178 117 217 42 23 140 21 191
-2z"/>
<path d="M2520 751 c0 -6 5 -11 10 -11 6 0 19 -9 30 -20 19 -19 20 -33 20
-228 0 -172 -3 -211 -16 -230 -8 -12 -22 -22 -30 -22 -8 0 -14 -4 -14 -10 0
-6 42 -10 105 -10 58 0 105 3 105 8 0 4 -15 14 -33 22 l-32 15 -3 99 c-3 91
-1 98 15 91 10 -4 43 -16 73 -27 43 -17 74 -40 146 -112 110 -112 156 -136
270 -144 93 -5 126 12 40 21 -84 8 -131 39 -248 161 -60 61 -108 112 -108 112
0 1 20 9 45 18 123 47 137 184 25 246 -42 24 -55 25 -222 28 -123 3 -178 0
-178 -7z m331 -34 c62 -42 76 -108 36 -168 -28 -42 -100 -70 -172 -66 l-50 2
-3 128 -3 127 79 0 c66 0 85 -4 113 -23z"/>
<path d="M31 726 c20 -14 43 -42 52 -63 9 -21 56 -128 106 -238 66 -149 94
-201 108 -203 16 -2 32 26 92 160 158 350 158 351 206 351 51 0 55 -17 55
-241 0 -202 -6 -242 -35 -242 -7 0 -17 -4 -20 -10 -4 -6 28 -10 89 -10 96 0
116 7 74 25 -23 10 -23 13 -26 230 l-3 220 28 22 28 23 -185 0 -185 0 33 -20
c17 -11 32 -24 32 -30 0 -13 -68 -181 -118 -293 l-39 -88 -38 78 c-76 158
-135 293 -135 308 0 9 11 20 25 25 14 5 25 12 25 15 0 3 -46 5 -102 5 l-103 0
36 -24z"/>
<path d="M822 733 c43 -27 48 -52 48 -232 0 -207 -4 -230 -42 -245 -48 -18
-31 -26 57 -26 89 0 105 8 56 27 -39 14 -43 37 -39 249 l3 172 150 -160 c83
-88 180 -192 217 -231 55 -59 69 -69 77 -57 7 9 11 103 11 238 0 222 5 262 35
262 7 0 17 5 20 10 4 6 -26 10 -82 10 l-88 0 32 -20 c18 -11 35 -30 38 -42 3
-13 4 -91 3 -174 l-3 -152 -185 194 -185 193 -75 0 c-74 0 -75 0 -48 -16z"/>
<path d="M2039 721 l31 -29 0 -191 c0 -210 -6 -239 -52 -248 -15 -3 -28 -10
-28 -14 0 -5 102 -8 237 -7 l236 3 13 55 c7 30 10 57 8 59 -3 3 -18 -10 -34
-28 -44 -48 -86 -61 -195 -61 -93 0 -96 1 -105 26 -6 14 -10 66 -10 115 l0 89
90 0 c86 0 91 -1 125 -31 l35 -31 0 78 0 78 -31 -30 c-28 -27 -36 -29 -125
-32 l-94 -4 0 101 0 101 105 0 c116 0 151 -11 175 -54 7 -14 17 -26 22 -26 7
0 2 65 -8 98 -2 9 -54 12 -215 12 l-211 0 31 -29z"/>
</g>
</svg>
